<svg width="35" height="34" viewBox="0 0 35 34" fill="none" xmlns="http://www.w3.org/2000/svg">
<path d="M24.0825 16.3087C24.0711 14.2194 25.0162 12.6424 26.929 11.481C25.8588 9.94962 24.2419 9.10706 22.1071 8.94196C20.086 8.78256 17.8772 10.1204 17.0688 10.1204C16.2148 10.1204 14.2564 8.99889 12.7193 8.99889C9.54261 9.05013 6.16667 11.5323 6.16667 16.582C6.16667 18.0735 6.43993 19.6144 6.98646 21.2047C7.71516 23.294 10.3453 28.4177 13.0894 28.3323C14.524 28.2982 15.5373 27.3133 17.4046 27.3133C19.215 27.3133 20.1544 28.3323 21.7541 28.3323C24.5209 28.2925 26.9006 23.6356 27.5951 21.5406C23.8833 19.7928 24.0825 16.4169 24.0825 16.3087V16.3087ZM20.8603 6.9608C22.4145 5.11627 22.2722 3.43683 22.2266 2.83337C20.8546 2.91308 19.2663 3.76703 18.3611 4.82023C17.3648 5.94744 16.7784 7.34223 16.9037 8.9135C18.3895 9.02736 19.7445 8.2645 20.8603 6.9608V6.9608Z" fill="#1E2432"/>
</svg>
