<svg width="35" height="32" viewBox="0 0 35 32" fill="none" xmlns="http://www.w3.org/2000/svg">
<path d="M4.78384 21.9079L9.54856 18.4787C9.27612 17.6998 9.1288 16.8667 9.1288 16C9.1288 15.1334 9.27612 14.3002 9.54856 13.5214L4.78384 10.0921C3.85454 11.8703 3.33334 13.8751 3.33334 16C3.33334 18.1249 3.85454 20.1297 4.78384 21.9079Z" fill="#FBBC05"/>
<path d="M9.54853 13.5214C10.6479 10.3788 13.7844 8.12123 17.5 8.12123C19.4962 8.12123 21.2992 8.7879 22.7159 9.87881L26.8371 6.00002C24.3257 3.93941 21.106 2.66669 17.5 2.66669C11.9017 2.66669 7.08813 5.68281 4.78381 10.0921L9.54853 13.5214Z" fill="#EA4335"/>
<path d="M17.5 29.3333C11.9002 29.3333 7.08551 26.3155 4.78195 21.9042L9.54473 18.4675C10.6406 21.6159 13.7801 23.8787 17.5 23.8787C19.3203 23.8787 20.9331 23.4753 22.2104 22.7166L26.7338 26.0126C24.2576 28.1795 20.9555 29.3333 17.5 29.3333Z" fill="#34A853"/>
<path d="M17.5 13.5757H30.7008C30.894 14.3636 31.0228 15.2121 31.0228 16C31.0228 20.3457 29.3335 23.7376 26.7338 26.0126L22.2104 22.7167C23.6894 21.8382 24.7184 20.4834 25.0985 18.7273H17.5V13.5757Z" fill="#4285F4"/>
</svg>
