<svg width="24" height="24" viewBox="0 0 24 24" fill="none" xmlns="http://www.w3.org/2000/svg">
<path d="M6 10V8C6 4.69 7 2 12 2C17 2 18 4.69 18 8V10" fill="white"/>
<path d="M6 10V8C6 4.69 7 2 12 2C17 2 18 4.69 18 8V10" stroke="#A7A7A7" stroke-width="1.5" stroke-linejoin="round"/>
<path d="M12 18.5C13.3807 18.5 14.5 17.3807 14.5 16C14.5 14.6193 13.3807 13.5 12 13.5C10.6193 13.5 9.5 14.6193 9.5 16C9.5 17.3807 10.6193 18.5 12 18.5Z" fill="white" stroke="#A7A7A7" stroke-width="1.5" stroke-linejoin="round"/>
<path d="M17 22H7C3 22 2 21 2 17L2 15C2 11 3 10 7 10L17 10C21 10 22 11 22 15V17C22 21 21 22 17 22Z" fill="white" stroke="#A7A7A7" stroke-width="1.5" stroke-linejoin="round"/>
</svg>
