<svg width="390" height="184" viewBox="0 0 390 184" fill="none" xmlns="http://www.w3.org/2000/svg">
<g opacity="0.9">
<g clip-path="url(#clip0_232_2010)">
<rect width="390" height="844" rx="20" fill="white"/>
<path d="M43.6328 -241.938C45.5658 -245.286 49.8469 -246.433 53.195 -244.5L542.994 38.2853C546.342 40.2183 547.489 44.4994 545.556 47.8475L413.175 277.138C411.224 280.517 406.043 278.661 406.68 274.812V274.812C421.403 185.873 350.169 106.092 260.137 110.684L145.835 116.515V116.515C56.5684 116.473 -28.6488 79.2582 -89.3522 13.8084L-97.9401 4.54913C-98.2099 4.25819 -98.2586 3.82537 -98.0602 3.48173L43.6328 -241.938Z" fill="#64B5F6"/>
<path d="M0 -198C0 -201.866 3.13401 -205 7 -205H562C565.866 -205 569 -201.866 569 -198V102.712C569 106.342 563.929 107.201 562.734 103.772V103.772C536.505 28.5199 449.296 -5.55618 378.997 31.9788L262.853 93.9911V93.9911C190.283 140.886 100.633 153.129 18.1467 127.407L0.599842 121.936C0.243023 121.825 0 121.494 0 121.121V-198Z" fill="#42A5F5"/>
</g>
</g>
<defs>
<clipPath id="clip0_232_2010">
<rect width="390" height="844" rx="0" fill="white"/>
</clipPath>
</defs>
</svg>
