<?xml version="1.0" encoding="utf-8"?>
<!-- Generator: Adobe Illustrator 27.5.0, SVG Export Plug-In . SVG Version: 6.00 Build 0)  -->
<svg version="1.1" id="_x2018_ëîé_x5F_1" xmlns="http://www.w3.org/2000/svg" xmlns:xlink="http://www.w3.org/1999/xlink"
	 x="0px" y="0px" viewBox="0 0 3000 2000" style="enable-background:new 0 0 3000 2000;" xml:space="preserve">
<rect style="fill:#FFFFFF;" width="3000" height="2000"/>
<g>
	<path style="fill:#DDE7FE;" d="M681.06,1811.712c0,0-400.821-100.113-249.329-390.098
		c117.115-224.181,49.73-287.476-13.384-559.021C355.231,591.048,564.599,255.519,872.775,333.31
		c328.199,82.844,412.352-92.049,690.059-170.291c277.707-78.242,631.152,0,770.005,243.931
		c138.854,243.931,17.689,546.601,181.9,665.993c248.188,180.45,34.716,631.752-236.705,686.987L681.06,1811.712z"/>
	<g>
		<path style="fill:#BDD1F9;" d="M2591.467,1714.528c0,52.306-193.477,98.421-487.83,125.678l-1.675,0.142
			c-92.308,8.54-308.938,25.833-618.478,25.833c-307.561,0-522.624-17.046-614.518-25.46c-0.546-0.053-1.079-0.089-1.624-0.142
			c-296.599-27.202-491.827-73.495-491.827-126.051c0-14.66,15.19-28.821,43.528-42.218
			c37.578-17.777,139.335-52.953,408.947-80.061c0.457-0.035,0.913-0.089,1.371-0.124c241.844-24.268,517.182-30.644,689.086-29.143
			c400.198,1.52,643.379,32.273,649.253,32.273c265.514,28.663,387.814,67.45,416.548,101.873
			C2589.018,1702.839,2591.467,1708.639,2591.467,1714.528z"/>
	</g>
	<g>
		<path style="fill:#BDD1F9;" d="M1745.298,1685.98c-0.172-0.061-0.341-0.139-0.504-0.238c-1.313-0.786-1.74-2.488-0.953-3.8
			c205.541-342.98,373.403-579.365,472.665-665.615c2.204-1.915,3.796-3.298,4.455-4.036c1.025-1.141,2.778-1.231,3.915-0.214
			c1.14,1.022,1.237,2.774,0.214,3.914c-0.892,0.994-2.419,2.322-4.949,4.519c-98.831,85.878-266.297,321.792-471.547,664.28
			C1747.906,1685.94,1746.515,1686.409,1745.298,1685.98z"/>
		<path style="fill:#BDD1F9;" d="M2272.089,1010.073c-11.592,9.566-60.438,20.149-63.168,16.84
			c-2.731-3.309,16.937-49.255,28.529-58.82c11.592-9.566,28.745-7.922,38.309,3.671
			C2285.325,983.356,2283.682,1000.508,2272.089,1010.073z"/>
		<path style="fill:#BDD1F9;" d="M2179.274,1024.588c0.676,15.362-20.756,61.783-25.142,61.976
			c-4.384,0.193-29.809-44.167-30.486-59.529c-0.677-15.361,11.229-28.361,26.59-29.037
			C2165.598,997.323,2178.598,1009.227,2179.274,1024.588z"/>
		<path style="fill:#BDD1F9;" d="M2209.444,1122.89c-15.118-2.801-55.521-34.136-54.722-38.452
			c0.8-4.315,49.746-19.099,64.864-16.298c15.12,2.8,25.106,17.328,22.305,32.447
			C2239.089,1115.705,2224.564,1125.691,2209.444,1122.89z"/>
		<path style="fill:#BDD1F9;" d="M1989.549,1238.377c3.907,25.512-23.461,106.855-30.743,107.97
			c-7.282,1.115-57.737-68.311-61.643-93.823c-3.907-25.512,13.607-49.361,39.12-53.266
			C1961.795,1195.351,1985.642,1212.865,1989.549,1238.377z"/>
		<path style="fill:#BDD1F9;" d="M2057.679,1396.96c-25.736-1.939-98.826-46.921-98.273-54.267
			c0.552-7.346,79.559-40.871,105.294-38.933c25.736,1.939,45.029,24.374,43.09,50.11
			C2105.851,1379.606,2083.415,1398.898,2057.679,1396.96z"/>
		<path style="fill:#BDD1F9;" d="M1901.013,1314.747c11.535,29.401,0.776,133.875-7.616,137.168
			c-8.393,3.292-87.321-65.993-98.857-95.396c-11.534-29.401,2.949-62.587,32.351-74.122
			C1856.293,1270.863,1889.479,1285.346,1901.013,1314.747z"/>
		<path style="fill:#BDD1F9;" d="M2002.518,1525.426c-31.082-5.6-114.389-69.557-112.789-78.429
			c1.598-8.871,101.986-39.733,133.069-34.133c31.082,5.6,51.742,35.338,46.141,66.42
			C2063.34,1510.368,2033.602,1531.026,2002.518,1525.426z"/>
		<path style="fill:#BDD1F9;" d="M1830.126,1425.613c11.535,29.402,0.775,133.874-7.616,137.167
			c-8.393,3.292-87.322-65.993-98.856-95.395c-11.536-29.402,2.948-62.587,32.349-74.122
			C1785.404,1381.727,1818.59,1396.211,1830.126,1425.613z"/>
		<path style="fill:#BDD1F9;" d="M1931.632,1636.291c-31.084-5.6-114.39-69.557-112.791-78.428
			c1.598-8.871,101.987-39.733,133.07-34.133c31.083,5.6,51.74,35.338,46.14,66.42
			C1992.452,1621.234,1962.714,1641.891,1931.632,1636.291z"/>
		<path style="fill:#BDD1F9;" d="M1703.375,1555.395c21.864,22.792,51.708,123.488,45.203,129.728
			c-6.505,6.241-105.876-27.757-127.74-50.549c-21.865-22.793-21.113-58.993,1.679-80.858
			C1645.309,1531.851,1681.51,1532.603,1703.375,1555.395z"/>
		<path style="fill:#BDD1F9;" d="M1865.726,1747.012c-31.54-1.671-122.188-54.71-121.711-63.712
			c0.477-9.002,96.219-52.171,127.759-50.501c31.54,1.671,55.752,28.593,54.083,60.131
			C1924.186,1724.469,1897.265,1748.682,1865.726,1747.012z"/>
		<path style="fill:#BDD1F9;" d="M2120.576,1091.249c0.687,15.608-21.089,62.772-25.544,62.969
			c-4.455,0.196-30.289-44.875-30.974-60.483c-0.688-15.607,11.407-28.816,27.016-29.503
			C2106.681,1063.546,2119.89,1075.641,2120.576,1091.249z"/>
		<path style="fill:#BDD1F9;" d="M2149.034,1191.55c-15.359-2.846-56.41-34.683-55.598-39.068
			c0.814-4.384,50.543-19.405,65.906-16.559c15.36,2.845,25.506,17.605,22.66,32.966
			C2179.156,1184.25,2164.396,1194.396,2149.034,1191.55z"/>
		<path style="fill:#BDD1F9;" d="M2057.698,1151.037c2.792,22.019-22.546,91.337-28.83,92.134
			c-6.285,0.797-48.115-60.009-50.906-82.028c-2.79-22.018,12.797-42.131,34.817-44.921
			C2034.796,1113.432,2054.907,1129.018,2057.698,1151.037z"/>
		<path style="fill:#BDD1F9;" d="M2107.843,1296.088c-21.822-4.042-80.142-49.274-78.988-55.503
			c1.153-6.229,71.806-27.568,93.63-23.526c21.823,4.043,36.237,25.011,32.195,46.835
			C2150.636,1285.717,2129.668,1300.131,2107.843,1296.088z"/>
	</g>
	<path style="fill:#F1A38D;" d="M1535.739,782.878c99.119-58.583,235.816-135.552,259.31-142.088
		c2.28-0.634,245.853-251.395,245.981-264.014c24.288,9.92,108.863,105.054,134.153,115.678l3.953,46.795
		c0,0-148.91,165.999-158.952,208.767c-19.091,81.279-39.789,149.331-59.18,172.33c-59.447,70.511-271.967,214.152-284.157,178.597
		c-7.99-23.287,9.231-38.365,37.907-63.81c46.157-40.958,95.408-99.207,72.241-105.815
		c-36.235-10.319-129.066,52.279-145.365,87.775c-8.63,18.821-44.784,103.996-45.221,131.247
		c-0.758,48.393-3.028,86.026-29.645,84.114c-6.793-0.495-14.141-46.697-16.398-67.447c-5.007-46.044-6.215-101.081-1.767-108.229
		c0,0-26.851,38.171-30.555,55.41c-8.736,40.578-24.123,73.463-41.745,66.034c-11.15-4.707-16.229-62.393,13.195-147.975
		c29.431-85.564,44.562-97.071,40.132-96.945c-1.728,0.042-23.244,26.052-45.049,57.15c-14.428,20.568-30.968,40.454-42.302,61.722
		c-13.903,26.096-42.933,40.956-55.156,31.814c-8.417-6.289,92.273-179.535,102.251-198.884c0,0-60.871,61.862-77.085,41.561
		C1406.85,919.851,1491.095,809.269,1535.739,782.878z"/>
	<g>
		<path style="fill:#BDD1F9;" d="M1308.967,1554.834c0.234-0.064,0.463-0.15,0.688-0.264c1.808-0.905,2.542-3.104,1.635-4.911
			c-236.547-472.372-434.096-800.553-556.257-924.091c-2.712-2.744-4.671-4.724-5.466-5.761c-1.236-1.605-3.536-1.899-5.135-0.674
			c-1.605,1.233-1.906,3.531-0.673,5.134c1.076,1.399,2.956,3.301,6.069,6.448c121.63,123.004,318.705,450.523,554.917,922.221
			C1305.535,1554.521,1307.321,1555.278,1308.967,1554.834z"/>
		<path style="fill:#BDD1F9;" d="M682.43,611.782c14.317,13.759,77.612,32.578,81.538,28.491
			c3.928-4.087-17.395-66.581-31.714-80.34c-14.317-13.759-37.078-13.306-50.837,1.012
			C667.659,575.262,668.111,598.023,682.43,611.782z"/>
		<path style="fill:#BDD1F9;" d="M803.258,640.17c-2.424,20.17,21.177,83.467,26.936,84.159
			c5.757,0.692,43.682-55.211,46.105-75.381c2.425-20.17-11.963-38.486-32.133-40.909C823.998,605.615,805.682,620,803.258,640.17z"
			/>
		<path style="fill:#BDD1F9;" d="M753.698,766.664c20.197-2.181,76.555-39.43,75.932-45.195
			c-0.623-5.765-63.63-30.128-83.827-27.948c-20.198,2.18-34.805,20.322-32.625,40.519
			C715.359,754.239,733.499,768.844,753.698,766.664z"/>
		<path style="fill:#BDD1F9;" d="M1031.865,940.763c-7.693,33.22,20.242,143.116,29.724,145.313
			c9.482,2.196,82.883-84.232,90.577-117.451c7.694-33.221-12.999-66.388-46.22-74.081
			C1072.726,886.849,1039.56,907.543,1031.865,940.763z"/>
		<path style="fill:#BDD1F9;" d="M926.278,1142.884c34.099,0.014,134.882-51.95,134.886-61.683
			c0.005-9.733-100.733-61.786-134.831-61.802c-34.099-0.015-61.755,27.615-61.77,61.715
			C864.547,1115.213,892.178,1142.867,926.278,1142.884z"/>
		<path style="fill:#BDD1F9;" d="M1140.882,1050.214c-18.131,37.584-14.386,176.294-3.659,181.47
			c10.729,5.174,121.627-78.225,139.76-115.809c18.131-37.583,2.363-82.75-35.221-100.881
			C1204.179,996.863,1159.012,1012.631,1140.882,1050.214z"/>
		<path style="fill:#BDD1F9;" d="M986.123,1317.636c41.509-4.274,157.644-80.217,156.423-92.064
			c-1.22-11.847-130.395-62.527-171.903-58.253c-41.508,4.275-71.693,41.39-67.419,82.899
			C907.498,1291.726,944.615,1321.911,986.123,1317.636z"/>
		<path style="fill:#BDD1F9;" d="M1223.205,1203.349c-18.133,37.584-14.386,176.293-3.66,181.47
			c10.728,5.174,121.629-78.225,139.76-115.809c18.132-37.583,2.363-82.748-35.219-100.88
			C1286.503,1149.997,1241.336,1165.766,1223.205,1203.349z"/>
		<path style="fill:#BDD1F9;" d="M1068.445,1470.771c41.51-4.275,157.644-80.218,156.425-92.066
			c-1.22-11.847-130.395-62.526-171.905-58.251c-41.509,4.274-71.692,41.39-67.418,82.898
			C989.822,1444.862,1026.937,1475.045,1068.445,1470.771z"/>
		<path style="fill:#BDD1F9;" d="M1377.234,1386.98c-31.079,27.845-80.451,157.525-72.504,166.396
			c7.947,8.872,142.256-26,173.336-53.844c31.081-27.844,33.703-75.612,5.861-106.691
			C1456.083,1361.761,1408.315,1359.137,1377.234,1386.98z"/>
		<path style="fill:#BDD1F9;" d="M1144.219,1623.217c41.718,0.948,166.436-59.879,166.707-71.785
			c0.271-11.907-121.555-78.339-163.273-79.287c-41.719-0.948-76.305,32.103-77.252,73.82
			C1069.452,1587.683,1102.5,1622.269,1144.219,1623.217z"/>
		<path style="fill:#BDD1F9;" d="M873.934,733.85c-2.463,20.493,21.517,84.804,27.366,85.508
			c5.85,0.702,44.384-56.097,46.846-76.591c2.463-20.492-12.153-39.102-32.647-41.564
			C895.006,698.741,876.397,713.357,873.934,733.85z"/>
		<path style="fill:#BDD1F9;" d="M826.429,863.15c20.518-2.216,77.779-40.061,77.147-45.919
			c-0.634-5.857-64.65-30.611-85.172-28.395c-20.521,2.216-35.36,20.647-33.145,41.169
			C787.475,850.526,805.906,865.366,826.429,863.15z"/>
		<path style="fill:#BDD1F9;" d="M950.803,818.895c-5.876,28.729,20.585,122.582,28.785,124.258
			c8.201,1.677,69.379-74.254,75.254-102.984c5.874-28.73-12.653-56.782-41.384-62.657
			C984.73,771.639,956.679,790.166,950.803,818.895z"/>
		<path style="fill:#BDD1F9;" d="M870.26,1004.984c29.153-3.148,110.5-56.916,109.603-65.237
			c-0.898-8.321-91.848-43.488-121.002-40.34c-29.155,3.148-50.238,29.333-47.09,58.487
			C814.918,987.049,841.105,1008.132,870.26,1004.984z"/>
	</g>
	<g>
		<defs>
			<path id="SVGID_1_" d="M681.06,1811.712c0,0-400.821-100.113-249.329-390.098c117.115-224.181,49.73-287.476-13.384-559.021
				C355.231,591.048,564.599,255.519,872.775,333.31c328.199,82.844,412.352-92.049,690.059-170.291
				c277.707-78.242,631.152,0,770.005,243.931c138.854,243.931,17.689,546.601,181.9,665.993
				c248.188,180.45,34.716,631.752-236.705,686.987L681.06,1811.712z"/>
		</defs>
		<clipPath id="SVGID_00000031926855354139516940000007913592824942650802_">
			<use xlink:href="#SVGID_1_"  style="overflow:visible;"/>
		</clipPath>
	</g>
	<g>
		<rect x="881.745" y="1413.214" style="fill:#42A5F5;" width="1203.492" height="351.259"/>
		<polygon style="fill:#64B5F6;" points="1008.336,1300.562 881.745,1413.214 2085.236,1413.214 1986.209,1307.145 		"/>
		<polygon style="fill:#2E6ECC;" points="1843.165,1362.294 1140.971,1361.059 1168.697,1336.927 1821.492,1336.927 		"/>
		<path style="fill:#FFFFFF;" d="M1160.739,1361.094c0,0,13.945-22.285,32.71-149.836c22.584-153.507-52.477-181.542-52.477-181.542
			s102.058,37.288,133.046,21.005c30.988-16.283,71.273-11.606,167.335,0c96.063,11.606,164.237,31.777,247.905,0
			c83.668-31.777,139.037,0,139.037,0s-39.638,79.686-33.559,115.369c6.079,35.683,2.466,196.205,2.466,196.205L1160.739,1361.094z"
			/>
	</g>
	<g>
		<path style="fill:#F1A38D;" d="M1882.983,991.111l-90.147-52.542c-1.773,19.421-40.925,63.591-78.082,96.564
			c-28.676,25.445-45.896,40.523-37.907,63.81C1685.629,1124.559,1798.393,1057.162,1882.983,991.111z"/>
		<polygon style="fill:#F1A38D;" points="1775.17,928.273 1775.167,928.275 1775.173,928.275 		"/>
	</g>
	<path style="fill:#64B5F6;" d="M2332.84,406.949c-59.051-103.738-156.916-177.502-271.258-222.015
		c0,0-82.57,119.668-102.179,163.76c-13.216,29.717-35.74,124.721-7.722,129.866c15.72,2.886,26.551-20.278,112.349,24.665
		c86.046,45.072,53.832,80.713,91.329,83.465c24.794,1.819,135.447-68.541,207.578-116.424
		C2354.558,448.835,2344.64,427.68,2332.84,406.949z"/>
</g>
</svg>
