<svg width="141" height="141" viewBox="0 0 141 141" fill="none" xmlns="http://www.w3.org/2000/svg">
<g clip-path="url(#clip0_91_10152)">
<mask id="mask0_91_10152" style="mask-type:luminance" maskUnits="userSpaceOnUse" x="0" y="0" width="141" height="141">
<path d="M141 0H0V141H141V0Z" fill="white"/>
</mask>
<g mask="url(#mask0_91_10152)">
<mask id="mask1_91_10152" style="mask-type:luminance" maskUnits="userSpaceOnUse" x="1" y="1" width="139" height="139">
<path d="M1.69202 1.69202H139.308V139.308H1.69202V1.69202Z" fill="white"/>
</mask>
<g mask="url(#mask1_91_10152)">
<g opacity="0.6659">
<path d="M18.2737 77.9154L21.697 78.2585L21.3539 81.6818L17.9307 81.3387L18.2737 77.9154Z" fill="#1EB0E6"/>
</g>
<g opacity="0.6659">
<path d="M88.7781 37.8187L85.3379 37.8575L85.2991 34.4173L88.7393 34.3785L88.7781 37.8187Z" fill="#1EB0E6"/>
</g>
<g opacity="0.6659">
<path d="M85.6893 112.996L82.2491 113.034L82.2103 109.594L85.6505 109.555L85.6893 112.996Z" fill="#1EB0E6"/>
</g>
<g opacity="0.6659">
<path d="M58.1516 99.3555L54.7114 99.3943L54.6726 95.9541L58.1128 95.9153L58.1516 99.3555Z" fill="#0675BB"/>
</g>
<g opacity="0.6659">
<path d="M101.34 69.4777L97.8995 69.5165L97.8607 66.0763L101.301 66.0375L101.34 69.4777Z" fill="#0675BB"/>
</g>
<g opacity="0.6659">
<path d="M44.0753 50.227L47.4985 50.5701L47.1554 53.9933L43.7322 53.6503L44.0753 50.227Z" fill="#0675BB"/>
</g>
<g opacity="0.6659">
<path d="M31.2863 109.006L38.1328 109.693L37.4466 116.539L30.6001 115.853L31.2863 109.006Z" fill="#27AE60"/>
</g>
<g opacity="0.6659">
<path d="M69.1514 17.6711L62.271 17.7487L62.1934 10.8684L69.0738 10.7908L69.1514 17.6711Z" fill="#27AE60"/>
</g>
<g opacity="0.6659">
<path d="M120.969 82.3348L114.089 82.4124L114.011 75.532L120.892 75.4544L120.969 82.3348Z" fill="#27AE60"/>
</g>
<g opacity="0.6659">
<path d="M24.9146 28.9816L28.6531 26.3543L28.6082 21.7852L32.2621 24.5288L36.5937 23.0742L35.1135 27.3971L37.8355 31.0672L33.2667 30.9953L30.6174 34.7182L29.274 30.3508L24.9146 28.9816Z" fill="#F7CE15"/>
</g>
<g opacity="0.6659">
<path d="M109.808 113.284L105.63 115.133L104.784 119.623L101.734 116.221L97.2026 116.804L99.4963 112.852L97.5413 108.722L102.009 109.682L105.332 106.547L105.799 111.092L109.808 113.284Z" fill="#F7CE15"/>
</g>
<g opacity="0.6659">
<path d="M108.9 29.9738L106.127 33.6056L107.547 37.9487L103.236 36.4337L99.5444 39.1261L99.6531 34.558L95.9517 31.8788L100.33 30.5706L101.734 26.2225L104.331 29.9819L108.9 29.9738Z" fill="#F7CE15"/>
</g>
</g>
<mask id="mask2_91_10152" style="mask-type:luminance" maskUnits="userSpaceOnUse" x="1" y="1" width="139" height="139">
<path d="M139.308 1.69202V139.308H1.69199V1.69202H139.308Z" fill="white"/>
</mask>
<g mask="url(#mask2_91_10152)">
<g opacity="0.794134">
<path d="M73.3628 25.4188L71.2614 28.1429L68.5373 26.0416L70.6387 23.3175L73.3628 25.4188Z" fill="#1EB0E6"/>
</g>
<g opacity="0.794134">
<path d="M97.6186 96.7202L95.6703 93.8846L98.5059 91.9363L100.454 94.7719L97.6186 96.7202Z" fill="#1EB0E6"/>
</g>
<g opacity="0.794134">
<path d="M37.3533 91.0281L35.405 88.1925L38.2406 86.2442L40.1889 89.0798L37.3533 91.0281Z" fill="#1EB0E6"/>
</g>
<g opacity="0.794134">
<path d="M44.2145 65.7908L42.2662 62.9552L45.1018 61.0069L47.05 63.8425L44.2145 65.7908Z" fill="#0675BB"/>
</g>
<g opacity="0.794134">
<path d="M66.0633 99.32L64.1151 96.4844L66.9506 94.5361L68.8989 97.3717L66.0633 99.32Z" fill="#0675BB"/>
</g>
<g opacity="0.794134">
<path d="M94.355 52.0775L92.2537 54.8016L89.5296 52.7002L91.6309 49.9761L94.355 52.0775Z" fill="#0675BB"/>
</g>
<g opacity="0.794134">
<path d="M45.5358 29.3851L41.3332 34.8333L35.885 30.6306L40.0876 25.1824L45.5358 29.3851Z" fill="#27AE60"/>
</g>
<g opacity="0.794134">
<path d="M120.363 82.8451L116.466 77.1739L122.138 73.2773L126.034 78.9485L120.363 82.8451Z" fill="#27AE60"/>
</g>
<g opacity="0.794134">
<path d="M70.9831 117.826L67.0866 112.154L72.7577 108.258L76.6543 113.929L70.9831 117.826Z" fill="#27AE60"/>
</g>
<g opacity="0.794134">
<path d="M113.172 36.7156L112.986 41.2811L116.641 44.0229L112.242 45.2565L110.764 49.5801L108.231 45.777L103.662 45.7074L106.496 42.1234L105.151 37.7567L109.435 39.3448L113.172 36.7156Z" fill="#F7CE15"/>
</g>
<g opacity="0.794134">
<path d="M42.2002 107.803L38.289 105.44L34.1256 107.323L35.1637 102.873L32.0866 99.4952L36.6395 99.1075L38.9011 95.1372L40.6768 99.3473L45.1517 100.271L41.6963 103.261L42.2002 107.803Z" fill="#F7CE15"/>
</g>
<g opacity="0.794134">
<path d="M114.635 95.642L110.188 94.5939L106.803 97.6634L106.425 93.1097L102.46 90.8392L106.674 89.073L107.608 84.6001L110.59 88.0622L115.133 87.5684L112.762 91.4743L114.635 95.642Z" fill="#F7CE15"/>
</g>
</g>
<path d="M98.6144 66.3054C100.931 81.8326 90.2217 96.2978 74.6946 98.6144C59.1675 100.931 44.7022 90.2217 42.3856 74.6946C40.069 59.1674 50.7783 44.7022 66.3055 42.3856C81.8326 40.069 96.2978 50.7783 98.6144 66.3054Z" fill="#27AD5F"/>
<path d="M94.2674 75.6958C95.7056 85.3358 89.0571 94.3161 79.4171 95.7543C69.7774 97.1925 60.7969 90.544 59.3586 80.9041C57.9204 71.2643 64.5692 62.2838 74.2089 60.8456C83.8488 59.4073 92.8292 66.0561 94.2674 75.6958Z" fill="#25A257"/>
<path d="M45.6663 82.0848C45.2879 79.9129 45.2456 77.7364 45.2422 75.5337C45.2365 72.0091 45.9536 68.3575 47.3728 65.1266C52.7824 52.8109 66.9703 46.6423 79.7964 46.2938C81.6729 46.2428 83.5409 46.229 85.406 46.299C79.8977 42.902 73.2077 41.3561 66.3058 42.3858C50.7785 44.7024 40.0693 59.1674 42.386 74.6948C42.9994 78.8063 44.4665 82.5785 46.5781 85.8619C46.2191 84.6164 45.889 83.3638 45.6663 82.0848Z" fill="#3ABB69"/>
<path d="M86.7944 53.0062C84.9 51.9988 82.2576 52.6781 80.9807 54.4026L65.5873 75.195C65.1898 75.7316 64.4326 75.8446 63.8958 75.4474L57.5855 70.7756C55.5827 69.293 52.7312 69.7185 51.2486 71.7211C49.7659 73.7237 50.1914 76.5752 52.1939 78.0576L63.1174 86.1449C65.12 87.6276 67.9715 87.2021 69.4541 85.1995L88.3243 59.7115C89.9415 57.5269 89.2886 54.3323 86.7944 53.0062Z" fill="#EFF7F1"/>
<path d="M87.5087 53.9029C87.5742 53.8172 87.6387 53.7307 87.7003 53.641C87.4314 53.4007 87.131 53.1852 86.7941 53.006C84.8995 51.9987 82.2573 52.6777 80.9808 54.4021L77.229 59.4696C80.0667 56.8602 83.5983 54.0885 87.5087 53.9029Z" fill="white"/>
<path d="M58.9274 71.7689L57.5855 70.7754C55.7452 69.413 53.1942 69.6693 51.6415 71.2726C54.0526 70.9904 56.5801 71.1113 58.9274 71.7689Z" fill="white"/>
<path d="M72.7569 79.2717C69.7905 81.1841 66.4941 82.9523 62.8665 82.82C60.3893 82.7298 58.108 81.6698 55.8217 80.7434L63.1173 86.1445C65.1199 87.6273 67.9714 87.2019 69.454 85.1991L75.0824 77.597C74.3358 78.1888 73.564 78.7514 72.7569 79.2717Z" fill="#D2EAD9"/>
</g>
</g>
<defs>
<clipPath id="clip0_91_10152">
<rect width="141" height="141" fill="white"/>
</clipPath>
</defs>
</svg>
